<mxfile host="app.diagrams.net" modified="2021-10-05T13:59:20.280Z" agent="5.0 (X11)" etag="4vEPrnlQLnc6n8LApLe5" version="15.4.3" type="github">
  <diagram id="3mCMkYg9du86etFKmYGh" name="Page-1">
    <mxGraphModel dx="981" dy="631" grid="1" gridSize="10" guides="1" tooltips="1" connect="1" arrows="1" fold="1" page="1" pageScale="1" pageWidth="850" pageHeight="1100" math="0" shadow="0">
      <root>
        <mxCell id="0" />
        <mxCell id="1" parent="0" />
        <mxCell id="tEnhf3OzV4DCqCZyh_2k-1" value="" style="rounded=1;whiteSpace=wrap;html=1;shadow=1;dashed=1;fillColor=#f5f5f5;strokeColor=#666666;fontColor=#333333;" vertex="1" parent="1">
          <mxGeometry x="90" y="310" width="620" height="350" as="geometry" />
        </mxCell>
        <mxCell id="xtfUn5MiASal-zNTAWUG-5" value="" style="edgeStyle=orthogonalEdgeStyle;rounded=0;orthogonalLoop=1;jettySize=auto;html=1;startArrow=classic;startFill=1;endArrow=classic;endFill=1;fillColor=#dae8fc;strokeColor=#6c8ebf;" parent="1" source="xtfUn5MiASal-zNTAWUG-2" target="xtfUn5MiASal-zNTAWUG-4" edge="1">
          <mxGeometry relative="1" as="geometry">
            <Array as="points">
              <mxPoint x="540" y="360" />
              <mxPoint x="540" y="430" />
            </Array>
          </mxGeometry>
        </mxCell>
        <mxCell id="xtfUn5MiASal-zNTAWUG-8" value="" style="edgeStyle=orthogonalEdgeStyle;rounded=0;orthogonalLoop=1;jettySize=auto;html=1;startArrow=classic;startFill=1;endArrow=classic;endFill=1;fillColor=#dae8fc;strokeColor=#6c8ebf;" parent="1" source="xtfUn5MiASal-zNTAWUG-2" target="xtfUn5MiASal-zNTAWUG-7" edge="1">
          <mxGeometry relative="1" as="geometry">
            <Array as="points">
              <mxPoint x="550" y="340" />
              <mxPoint x="550" y="370" />
            </Array>
          </mxGeometry>
        </mxCell>
        <mxCell id="xtfUn5MiASal-zNTAWUG-10" value="" style="edgeStyle=orthogonalEdgeStyle;rounded=0;orthogonalLoop=1;jettySize=auto;html=1;endArrow=classic;endFill=1;startArrow=classic;startFill=1;fillColor=#dae8fc;strokeColor=#6c8ebf;" parent="1" source="xtfUn5MiASal-zNTAWUG-2" target="xtfUn5MiASal-zNTAWUG-9" edge="1">
          <mxGeometry relative="1" as="geometry">
            <Array as="points">
              <mxPoint x="530" y="380" />
              <mxPoint x="530" y="500" />
            </Array>
          </mxGeometry>
        </mxCell>
        <mxCell id="xtfUn5MiASal-zNTAWUG-13" value="" style="edgeStyle=orthogonalEdgeStyle;rounded=0;orthogonalLoop=1;jettySize=auto;html=1;startArrow=classic;startFill=1;endArrow=none;endFill=0;exitX=0.5;exitY=1;exitDx=0;exitDy=0;fillColor=#f8cecc;strokeColor=#b85450;" parent="1" source="xtfUn5MiASal-zNTAWUG-14" target="xtfUn5MiASal-zNTAWUG-12" edge="1">
          <mxGeometry relative="1" as="geometry">
            <Array as="points">
              <mxPoint x="170" y="420" />
              <mxPoint x="170" y="420" />
            </Array>
          </mxGeometry>
        </mxCell>
        <mxCell id="xtfUn5MiASal-zNTAWUG-15" value="" style="edgeStyle=orthogonalEdgeStyle;rounded=0;orthogonalLoop=1;jettySize=auto;html=1;startArrow=classic;startFill=1;endArrow=classic;endFill=1;fillColor=#dae8fc;strokeColor=#6c8ebf;" parent="1" source="xtfUn5MiASal-zNTAWUG-2" target="xtfUn5MiASal-zNTAWUG-14" edge="1">
          <mxGeometry relative="1" as="geometry" />
        </mxCell>
        <mxCell id="xtfUn5MiASal-zNTAWUG-28" value="" style="edgeStyle=orthogonalEdgeStyle;rounded=0;orthogonalLoop=1;jettySize=auto;html=1;startArrow=none;startFill=0;endArrow=classic;endFill=1;exitX=0.75;exitY=1;exitDx=0;exitDy=0;fillColor=#dae8fc;strokeColor=#6c8ebf;" parent="1" source="xtfUn5MiASal-zNTAWUG-2" target="xtfUn5MiASal-zNTAWUG-27" edge="1">
          <mxGeometry relative="1" as="geometry">
            <Array as="points">
              <mxPoint x="455" y="440" />
              <mxPoint x="510" y="440" />
              <mxPoint x="510" y="610" />
            </Array>
          </mxGeometry>
        </mxCell>
        <mxCell id="xtfUn5MiASal-zNTAWUG-2" value="SBC" style="whiteSpace=wrap;html=1;rounded=1;" parent="1" vertex="1">
          <mxGeometry x="365" y="330" width="120" height="60" as="geometry" />
        </mxCell>
        <mxCell id="xtfUn5MiASal-zNTAWUG-4" value="IMU" style="whiteSpace=wrap;html=1;rounded=1;" parent="1" vertex="1">
          <mxGeometry x="565" y="400" width="120" height="60" as="geometry" />
        </mxCell>
        <mxCell id="xtfUn5MiASal-zNTAWUG-7" value="GPS" style="whiteSpace=wrap;html=1;rounded=1;" parent="1" vertex="1">
          <mxGeometry x="565" y="330" width="120" height="60" as="geometry" />
        </mxCell>
        <mxCell id="xtfUn5MiASal-zNTAWUG-9" value="Anemometer" style="whiteSpace=wrap;html=1;rounded=1;" parent="1" vertex="1">
          <mxGeometry x="565" y="470" width="120" height="60" as="geometry" />
        </mxCell>
        <mxCell id="xtfUn5MiASal-zNTAWUG-21" value="" style="edgeStyle=orthogonalEdgeStyle;rounded=0;orthogonalLoop=1;jettySize=auto;html=1;startArrow=classic;startFill=1;endArrow=classic;endFill=1;fillColor=#f8cecc;strokeColor=#b85450;" parent="1" source="xtfUn5MiASal-zNTAWUG-12" target="xtfUn5MiASal-zNTAWUG-20" edge="1">
          <mxGeometry relative="1" as="geometry" />
        </mxCell>
        <mxCell id="xtfUn5MiASal-zNTAWUG-23" value="" style="edgeStyle=orthogonalEdgeStyle;rounded=0;orthogonalLoop=1;jettySize=auto;html=1;startArrow=none;startFill=0;endArrow=classic;endFill=1;fillColor=#f8cecc;strokeColor=#b85450;" parent="1" source="xtfUn5MiASal-zNTAWUG-12" target="xtfUn5MiASal-zNTAWUG-22" edge="1">
          <mxGeometry relative="1" as="geometry">
            <Array as="points">
              <mxPoint x="330" y="510" />
              <mxPoint x="330" y="510" />
            </Array>
          </mxGeometry>
        </mxCell>
        <mxCell id="xtfUn5MiASal-zNTAWUG-26" style="edgeStyle=orthogonalEdgeStyle;rounded=0;orthogonalLoop=1;jettySize=auto;html=1;entryX=0;entryY=0.75;entryDx=0;entryDy=0;startArrow=none;startFill=0;endArrow=classic;endFill=1;fillColor=#f8cecc;strokeColor=#b85450;" parent="1" source="xtfUn5MiASal-zNTAWUG-12" target="xtfUn5MiASal-zNTAWUG-2" edge="1">
          <mxGeometry relative="1" as="geometry">
            <Array as="points">
              <mxPoint x="280" y="490" />
              <mxPoint x="280" y="375" />
            </Array>
          </mxGeometry>
        </mxCell>
        <mxCell id="xtfUn5MiASal-zNTAWUG-29" style="edgeStyle=orthogonalEdgeStyle;rounded=0;orthogonalLoop=1;jettySize=auto;html=1;entryX=0;entryY=0.5;entryDx=0;entryDy=0;startArrow=none;startFill=0;endArrow=classic;endFill=1;fillColor=#f8cecc;strokeColor=#b85450;" parent="1" source="xtfUn5MiASal-zNTAWUG-12" target="xtfUn5MiASal-zNTAWUG-27" edge="1">
          <mxGeometry relative="1" as="geometry">
            <Array as="points">
              <mxPoint x="298" y="530" />
              <mxPoint x="298" y="610" />
            </Array>
          </mxGeometry>
        </mxCell>
        <mxCell id="xtfUn5MiASal-zNTAWUG-12" value="Power Distribution" style="whiteSpace=wrap;html=1;rounded=1;" parent="1" vertex="1">
          <mxGeometry x="110" y="480" width="120" height="60" as="geometry" />
        </mxCell>
        <mxCell id="xtfUn5MiASal-zNTAWUG-17" value="" style="edgeStyle=orthogonalEdgeStyle;rounded=0;orthogonalLoop=1;jettySize=auto;html=1;startArrow=classic;startFill=1;endArrow=classic;endFill=1;dashed=1;fillColor=#dae8fc;strokeColor=#6c8ebf;entryX=0.5;entryY=1;entryDx=0;entryDy=0;" parent="1" source="xtfUn5MiASal-zNTAWUG-14" target="xtfUn5MiASal-zNTAWUG-16" edge="1">
          <mxGeometry relative="1" as="geometry">
            <Array as="points">
              <mxPoint x="150" y="280" />
              <mxPoint x="150" y="280" />
            </Array>
          </mxGeometry>
        </mxCell>
        <mxCell id="xtfUn5MiASal-zNTAWUG-19" value="" style="edgeStyle=orthogonalEdgeStyle;rounded=0;orthogonalLoop=1;jettySize=auto;html=1;startArrow=classic;startFill=1;endArrow=classic;endFill=1;dashed=1;fillColor=#dae8fc;strokeColor=#6c8ebf;entryX=0.5;entryY=1;entryDx=0;entryDy=0;" parent="1" source="xtfUn5MiASal-zNTAWUG-14" target="xtfUn5MiASal-zNTAWUG-18" edge="1">
          <mxGeometry relative="1" as="geometry">
            <Array as="points">
              <mxPoint x="190" y="270" />
              <mxPoint x="290" y="270" />
            </Array>
          </mxGeometry>
        </mxCell>
        <mxCell id="xtfUn5MiASal-zNTAWUG-14" value="Router" style="whiteSpace=wrap;html=1;rounded=1;" parent="1" vertex="1">
          <mxGeometry x="110" y="330" width="120" height="60" as="geometry" />
        </mxCell>
        <mxCell id="xtfUn5MiASal-zNTAWUG-16" value="Ground Control" style="whiteSpace=wrap;html=1;rounded=1;fillColor=#f5f5f5;strokeColor=#666666;fontColor=#333333;" parent="1" vertex="1">
          <mxGeometry x="90" y="190" width="120" height="60" as="geometry" />
        </mxCell>
        <mxCell id="xtfUn5MiASal-zNTAWUG-18" value="Naiad" style="whiteSpace=wrap;html=1;rounded=1;fillColor=#f5f5f5;strokeColor=#666666;fontColor=#333333;" parent="1" vertex="1">
          <mxGeometry x="230" y="190" width="120" height="60" as="geometry" />
        </mxCell>
        <mxCell id="xtfUn5MiASal-zNTAWUG-20" value="Battery" style="whiteSpace=wrap;html=1;rounded=1;" parent="1" vertex="1">
          <mxGeometry x="110" y="580" width="120" height="60" as="geometry" />
        </mxCell>
        <mxCell id="xtfUn5MiASal-zNTAWUG-24" style="edgeStyle=orthogonalEdgeStyle;rounded=0;orthogonalLoop=1;jettySize=auto;html=1;startArrow=none;startFill=0;endArrow=classic;endFill=1;entryX=0.5;entryY=1;entryDx=0;entryDy=0;fillColor=#dae8fc;strokeColor=#6c8ebf;" parent="1" source="xtfUn5MiASal-zNTAWUG-22" target="xtfUn5MiASal-zNTAWUG-2" edge="1">
          <mxGeometry relative="1" as="geometry">
            <mxPoint x="225" y="380" as="targetPoint" />
            <Array as="points">
              <mxPoint x="425" y="450" />
              <mxPoint x="425" y="450" />
            </Array>
          </mxGeometry>
        </mxCell>
        <mxCell id="xtfUn5MiASal-zNTAWUG-22" value="Battery warning system" style="whiteSpace=wrap;html=1;rounded=1;" parent="1" vertex="1">
          <mxGeometry x="365" y="480" width="120" height="60" as="geometry" />
        </mxCell>
        <mxCell id="xtfUn5MiASal-zNTAWUG-27" value="Sonar Sender" style="whiteSpace=wrap;html=1;rounded=1;" parent="1" vertex="1">
          <mxGeometry x="365" y="580" width="120" height="60" as="geometry" />
        </mxCell>
        <mxCell id="xtfUn5MiASal-zNTAWUG-43" value="" style="group" parent="1" vertex="1" connectable="0">
          <mxGeometry x="530" y="170" width="180" height="120" as="geometry" />
        </mxCell>
        <mxCell id="xtfUn5MiASal-zNTAWUG-40" value="&lt;p style=&quot;line-height: 1.5&quot; align=&quot;center&quot;&gt;&lt;/p&gt;&lt;div style=&quot;line-height: 1.4&quot; align=&quot;center&quot;&gt;Legend&lt;br&gt;&lt;/div&gt;&lt;p align=&quot;center&quot;&gt;&lt;/p&gt;&lt;div&gt;&lt;br&gt;&lt;/div&gt;&lt;div&gt;&lt;br&gt;&lt;/div&gt;&lt;div&gt;&lt;br&gt;&lt;/div&gt;&lt;div&gt;&lt;br&gt;&lt;/div&gt;&lt;div&gt;&lt;br&gt;&lt;/div&gt;&lt;div&gt;&lt;br&gt;&lt;/div&gt;" style="rounded=1;whiteSpace=wrap;html=1;align=center;fillColor=#f5f5f5;strokeColor=#666666;fontColor=#333333;" parent="xtfUn5MiASal-zNTAWUG-43" vertex="1">
          <mxGeometry width="180" height="120" as="geometry" />
        </mxCell>
        <mxCell id="xtfUn5MiASal-zNTAWUG-34" value="" style="edgeStyle=orthogonalEdgeStyle;rounded=0;orthogonalLoop=1;jettySize=auto;html=1;startArrow=none;startFill=0;endArrow=classic;endFill=1;fillColor=#f8cecc;strokeColor=#b85450;" parent="xtfUn5MiASal-zNTAWUG-43" source="xtfUn5MiASal-zNTAWUG-31" edge="1">
          <mxGeometry relative="1" as="geometry">
            <mxPoint x="170" y="40" as="targetPoint" />
          </mxGeometry>
        </mxCell>
        <mxCell id="xtfUn5MiASal-zNTAWUG-31" value="Power" style="rounded=1;whiteSpace=wrap;html=1;fillColor=#f8cecc;strokeColor=#b85450;" parent="xtfUn5MiASal-zNTAWUG-43" vertex="1">
          <mxGeometry x="10" y="30" width="100" height="20" as="geometry" />
        </mxCell>
        <mxCell id="xtfUn5MiASal-zNTAWUG-36" value="" style="edgeStyle=orthogonalEdgeStyle;rounded=0;orthogonalLoop=1;jettySize=auto;html=1;startArrow=none;startFill=0;endArrow=classic;endFill=1;fillColor=#dae8fc;strokeColor=#6c8ebf;" parent="xtfUn5MiASal-zNTAWUG-43" source="xtfUn5MiASal-zNTAWUG-32" edge="1">
          <mxGeometry relative="1" as="geometry">
            <mxPoint x="170" y="70" as="targetPoint" />
          </mxGeometry>
        </mxCell>
        <mxCell id="xtfUn5MiASal-zNTAWUG-32" value="Communication" style="rounded=1;whiteSpace=wrap;html=1;fillColor=#dae8fc;strokeColor=#6c8ebf;" parent="xtfUn5MiASal-zNTAWUG-43" vertex="1">
          <mxGeometry x="10" y="60" width="100" height="20" as="geometry" />
        </mxCell>
        <mxCell id="xtfUn5MiASal-zNTAWUG-39" value="" style="edgeStyle=orthogonalEdgeStyle;rounded=0;orthogonalLoop=1;jettySize=auto;html=1;startArrow=none;startFill=0;endArrow=classic;endFill=1;dashed=1;fillColor=#dae8fc;strokeColor=#6c8ebf;" parent="xtfUn5MiASal-zNTAWUG-43" source="xtfUn5MiASal-zNTAWUG-37" edge="1">
          <mxGeometry relative="1" as="geometry">
            <mxPoint x="170" y="100" as="targetPoint" />
          </mxGeometry>
        </mxCell>
        <mxCell id="xtfUn5MiASal-zNTAWUG-37" value="Wireless Comm." style="rounded=1;whiteSpace=wrap;html=1;fillColor=#dae8fc;strokeColor=#6c8ebf;" parent="xtfUn5MiASal-zNTAWUG-43" vertex="1">
          <mxGeometry x="10" y="90" width="100" height="20" as="geometry" />
        </mxCell>
        <mxCell id="xtfUn5MiASal-zNTAWUG-44" value="&lt;font size=&quot;1&quot;&gt;&lt;b style=&quot;font-size: 30px&quot;&gt;Athena - Hardware&lt;br&gt;&lt;/b&gt;&lt;/font&gt;" style="text;html=1;align=center;verticalAlign=middle;resizable=0;points=[];autosize=1;strokeColor=none;fillColor=none;" parent="1" vertex="1">
          <mxGeometry x="250" y="120" width="280" height="20" as="geometry" />
        </mxCell>
        <mxCell id="tEnhf3OzV4DCqCZyh_2k-2" value="Athena hull" style="text;html=1;align=center;verticalAlign=middle;resizable=0;points=[];autosize=1;strokeColor=none;fillColor=none;" vertex="1" parent="1">
          <mxGeometry x="585" y="600" width="80" height="20" as="geometry" />
        </mxCell>
      </root>
    </mxGraphModel>
  </diagram>
</mxfile>
